<svg id="Group_17463" data-name="Group 17463" xmlns="http://www.w3.org/2000/svg" width="26.881" height="26.881" viewBox="0 0 26.881 26.881">
  <g id="Group_17462" data-name="Group 17462" transform="translate(12.544 10.304)">
    <path id="Path_21484" data-name="Path 21484" d="M56.486,29.906v.941a5.736,5.736,0,0,1-1.814,4.175l-1.743-.264a6,6,0,0,0,.869-3.109V30a6,6,0,0,0-.609-2.634,5.7,5.7,0,0,0-1.178-1.617l0,0A1.435,1.435,0,0,1,53.278,25a1.454,1.454,0,0,1,.86.282,5.751,5.751,0,0,1,2.348,4.623Z" transform="translate(-42.149 -25)" fill="#fcd770"/>
    <path id="Path_21485" data-name="Path 21485" d="M47.064,25.287a4.337,4.337,0,0,1,.524.461,5.7,5.7,0,0,1,1.178,1.617A6,6,0,0,1,49.376,30v1.649a6,6,0,0,1-.869,3.109l-4.2-.645v0a9.4,9.4,0,0,1-.3-2.374V29.915a9.538,9.538,0,0,1,.184-1.855,3.246,3.246,0,0,0,.712.076c.99,0,1.792-.4,1.792-.9,0-.318-.332-.6-.829-.753l.134-1.469A1.227,1.227,0,0,1,46.218,25,1.409,1.409,0,0,1,47.064,25.287Z" transform="translate(-37.728 -25)" fill="#fcd770"/>
    <path id="Path_21486" data-name="Path 21486" d="M33.929,25.193a1.42,1.42,0,0,1,.56.578v0A5.861,5.861,0,0,0,32.688,30v1.649a5.853,5.853,0,0,0,.323,1.913L30.5,33.176a5.723,5.723,0,0,1-.5-2.33v-.941a5.714,5.714,0,0,1,.09-1c.018-.094.036-.188.058-.282a5.776,5.776,0,0,1,2.2-3.342,1.454,1.454,0,0,1,.86-.282A1.424,1.424,0,0,1,33.929,25.193Z" transform="translate(-30 -25)" fill="#fcd770"/>
    <path id="Path_21487" data-name="Path 21487" d="M39.382,25.009l.134,1.478c-.5.157-.829.435-.829.753,0,.367.444.681,1.08.82a9.538,9.538,0,0,0-.184,1.855v1.819a9.4,9.4,0,0,0,.3,2.374l-2.813-.43-.753-.116A5.853,5.853,0,0,1,36,31.648V30a5.861,5.861,0,0,1,1.8-4.225v0a5.32,5.32,0,0,1,.569-.484A1.475,1.475,0,0,1,39.239,25a1.357,1.357,0,0,1,.139.009Z" transform="translate(-33.312 -25)" fill="#fcd770"/>
  </g>
  <path id="Path_21488" data-name="Path 21488" d="M45.584,22.272c0,.493-.8.9-1.792.9a3.246,3.246,0,0,1-.712-.076c-.636-.139-1.08-.452-1.08-.82,0-.318.332-.6.829-.753l-.134-1.478L42.452,17.4a1.013,1.013,0,0,1,0-.116A1.283,1.283,0,0,1,43.734,16h.116a1.285,1.285,0,0,1,1.286,1.286,1.013,1.013,0,0,1,0,.116L44.89,20.05l-.134,1.469C45.253,21.676,45.584,21.954,45.584,22.272Z" transform="translate(-24.08 -9.728)" fill="#cf9e76"/>
  <path id="Path_21489" data-name="Path 21489" d="M12.92,3.85a2.206,2.206,0,0,1,.488-.058,2.232,2.232,0,0,1,1.792.9l-.009.045a2.028,2.028,0,0,0-.439-.045A2.235,2.235,0,0,0,12.691,6.05c-.058,0-.116-.018-.179-.018A2.238,2.238,0,0,0,10.3,7.945a3.134,3.134,0,0,0-.551,5.811,2.213,2.213,0,0,0-.376,1.237,2.238,2.238,0,0,0,1.048,1.891,2.239,2.239,0,0,0,2.088,3.051c-.116-.009-.228-.013-.34-.013h-.108a4.448,4.448,0,0,0-2.379.685L8.48,17.232a2.228,2.228,0,0,1-2.088-3.038A2.238,2.238,0,0,1,5.344,12.3a2.213,2.213,0,0,1,.376-1.237,3.134,3.134,0,0,1,.551-5.811A2.238,2.238,0,0,1,8.48,3.344c.063,0,.121.013.179.018a2.236,2.236,0,0,1,4.261.488Z" transform="translate(-3.104 -2)" fill="#8cc152"/>
  <path id="Path_21490" data-name="Path 21490" d="M24,13.6a2.226,2.226,0,0,1,.645,1.568,2.274,2.274,0,0,1-.085.609l-.018.031a1.424,1.424,0,0,0-.721-.193,1.454,1.454,0,0,0-.86.282,5.776,5.776,0,0,0-2.2,3.342c-.022.094-.04.188-.058.282a5.714,5.714,0,0,0-.09,1v.941a5.723,5.723,0,0,0,.5,2.33l-3.293-.506c-.116-.018-.228-.031-.34-.04a2.239,2.239,0,0,1-2.088-3.051A2.238,2.238,0,0,1,14.344,18.3a2.213,2.213,0,0,1,.376-1.237,3.134,3.134,0,0,1,.551-5.811A2.238,2.238,0,0,1,17.48,9.344c.063,0,.121.013.179.018A2.235,2.235,0,0,1,19.72,8a2.028,2.028,0,0,1,.439.045A2.229,2.229,0,0,1,21.92,9.85a2.206,2.206,0,0,1,.488-.058A2.237,2.237,0,0,1,24,13.6Z" transform="translate(-8.072 -5.312)" fill="#b4dd7f"/>
  <path id="Path_21491" data-name="Path 21491" d="M4.15,50H6.57a4.525,4.525,0,0,0,0,1.792H2.9a.9.9,0,0,1-.9-.9.9.9,0,0,1,.9-.9Z" transform="translate(-2 -28.496)" fill="#b4dd7f"/>
  <path id="Path_21492" data-name="Path 21492" d="M5.981,46.018l2.666.6a4.451,4.451,0,0,0-.421,1.178H5.806A.809.809,0,0,1,5,46.986v-.179A.809.809,0,0,1,5.806,46a.772.772,0,0,1,.175.018Z" transform="translate(-3.656 -26.288)" fill="#b4dd7f"/>
  <path id="Path_21493" data-name="Path 21493" d="M8.647,55.178l-2.666.6a.772.772,0,0,1-.175.018A.809.809,0,0,1,5,54.986v-.179A.809.809,0,0,1,5.806,54H8.226A4.451,4.451,0,0,0,8.647,55.178Z" transform="translate(-3.656 -30.703)" fill="#b4dd7f"/>
  <path id="Path_21494" data-name="Path 21494" d="M33.9,45.118a2.09,2.09,0,0,0-1.268-.7l-.045-.009-1.743-.264-4.2-.645v0l-2.814-.43-.753-.116-2.513-.385-3.293-.506c-.116-.018-.228-.031-.34-.04S16.7,42,16.588,42H16.48a4.492,4.492,0,0,0-4.39,3.584,4.525,4.525,0,0,0,0,1.792,4.451,4.451,0,0,0,.421,1.178A4.477,4.477,0,0,0,16.48,50.96h.108a4.4,4.4,0,0,0,.681-.054L23.827,49.9l8.8-1.353A2.093,2.093,0,0,0,33.9,45.118Z" transform="translate(-7.52 -24.08)" fill="#ff826e"/>
</svg>
